# This file uses centimeters as units for non-parametric coordinates.

mtllib Road4.mtl
g default
v -5.000000 -0.500000 5.000000
v -5.000000 0.500000 5.000000
v -5.000000 -0.500000 5.000000
v -5.000000 -0.500000 8.000000
v -5.000000 0.500000 8.000000
v -8.000000 -0.500000 5.000000
v -8.000000 0.500000 5.000000
v -5.000000 0.800000 5.000000
v -5.000000 0.800000 8.000000
v -5.000000 0.800000 5.000000
v -8.000000 0.800000 5.000000
v -3.000000 -0.500000 5.000000
v -3.000000 0.500000 5.000000
v -3.000000 -0.500000 5.000000
v -3.000000 -0.500000 8.000000
v -3.000000 0.500000 8.000000
v -3.000000 0.800000 5.000000
v -3.000000 0.800000 8.000000
v -5.000000 0.500000 3.000000
v -8.000000 0.500000 3.000000
v -5.000000 0.800000 3.000000
v -8.000000 0.800000 3.000000
v -3.000000 0.500000 3.000000
v -5.000000 -0.500000 3.000000
v -5.000000 -0.500000 3.000000
v -8.000000 -0.500000 3.000000
v -3.000000 -0.500000 3.000000
v -3.152241 0.500000 4.234633
v -3.585787 0.500000 3.585787
v -4.234633 0.500000 3.152241
v -3.152241 0.800000 4.234633
v -3.585787 0.800000 3.585787
v -4.234633 0.800000 3.152241
v -5.000000 0.800000 3.000000
v -3.124510 0.500000 3.964460
v -3.957479 0.500000 3.123497
v 0.000000 -0.500000 5.000000
v 0.000000 -0.500000 3.000000
v 0.000000 0.500000 3.000000
v 0.000000 0.500000 5.000000
v 0.000000 0.500000 8.000000
v 0.000000 -0.500000 8.000000
v 0.000000 -0.500000 5.000000
v -5.000000 -0.500000 0.000000
v -3.000000 -0.500000 0.000000
v 0.000000 -0.500000 0.000000
v 0.000000 0.500000 0.000000
v -3.000000 0.500000 0.000000
v -5.000000 0.500000 0.000000
v -8.000000 0.500000 0.000000
v -8.000000 -0.500000 0.000000
v -5.000000 -0.500000 0.000000
v -5.000000 -0.500000 -5.000000
v -5.000000 0.500000 -5.000000
v -5.000000 -0.500000 -5.000000
v -8.000000 -0.500000 -5.000000
v -8.000000 0.500000 -5.000000
v -5.000000 0.800000 -5.000000
v -8.000000 0.800000 -5.000000
v -5.000000 0.500000 -3.000000
v -8.000000 0.500000 -3.000000
v -5.000000 0.800000 -3.000000
v -8.000000 0.800000 -3.000000
v -3.000000 0.500000 -3.000000
v -5.000000 -0.500000 -3.000000
v -5.000000 -0.500000 -3.000000
v -8.000000 -0.500000 -3.000000
v -3.000000 -0.500000 -3.000000
v 0.000000 -0.500000 -3.000000
v 0.000000 0.500000 -3.000000
v 5.000000 -0.500000 5.000000
v 5.000000 0.500000 5.000000
v 5.000000 -0.500000 5.000000
v 5.000000 -0.500000 8.000000
v 5.000000 0.500000 8.000000
v 8.000000 -0.500000 5.000000
v 8.000000 0.500000 5.000000
v 5.000000 0.800000 5.000000
v 5.000000 0.800000 8.000000
v 5.000000 0.800000 5.000000
v 8.000000 0.800000 5.000000
v 3.000000 -0.500000 5.000000
v 3.000000 0.500000 5.000000
v 3.000000 -0.500000 5.000000
v 3.000000 -0.500000 8.000000
v 3.000000 0.500000 8.000000
v 3.000000 0.800000 5.000000
v 3.000000 0.800000 8.000000
v 5.000000 0.500000 3.000000
v 8.000000 0.500000 3.000000
v 5.000000 0.800000 3.000000
v 8.000000 0.800000 3.000000
v 3.000000 0.500000 3.000000
v 5.000000 -0.500000 3.000000
v 5.000000 -0.500000 3.000000
v 8.000000 -0.500000 3.000000
v 3.000000 -0.500000 3.000000
v 3.152241 0.500000 4.234633
v 3.585787 0.500000 3.585787
v 4.234633 0.500000 3.152241
v 3.152241 0.800000 4.234633
v 3.585787 0.800000 3.585787
v 4.234633 0.800000 3.152241
v 5.000000 0.800000 3.000000
v 3.124510 0.500000 3.964460
v 3.957479 0.500000 3.123497
v 5.000000 -0.500000 0.000000
v 3.000000 -0.500000 0.000000
v 3.000000 0.500000 0.000000
v 5.000000 0.500000 0.000000
v 8.000000 0.500000 0.000000
v 8.000000 -0.500000 0.000000
v 5.000000 -0.500000 0.000000
v 5.000000 -0.500000 -5.000000
v 5.000000 0.500000 -5.000000
v 5.000000 -0.500000 -5.000000
v 8.000000 -0.500000 -5.000000
v 8.000000 0.500000 -5.000000
v 5.000000 0.800000 -5.000000
v 8.000000 0.800000 -5.000000
v 5.000000 0.500000 -3.000000
v 8.000000 0.500000 -3.000000
v 5.000000 0.800000 -3.000000
v 8.000000 0.800000 -3.000000
v 3.000000 0.500000 -3.000000
v 5.000000 -0.500000 -3.000000
v 5.000000 -0.500000 -3.000000
v 8.000000 -0.500000 -3.000000
v 3.000000 -0.500000 -3.000000
v -3.000000 -0.500000 -5.000000
v 0.000000 -0.500000 -5.000000
v 3.000000 -0.500000 -5.000000
v -3.000000 0.500000 -5.000000
v 0.000000 0.500000 -5.000000
v 3.000000 0.500000 -5.000000
v -3.000000 0.800000 -5.000000
v 0.000000 0.800000 -5.000000
v 0.000000 0.500000 -5.000000
v 3.000000 0.800000 -5.000000
v -3.000000 0.800000 -3.000000
v 0.000000 0.500000 -3.000000
v 0.000000 0.800000 -3.000000
v 3.000000 0.800000 -3.000000
vt 0.187500 0.000000
vt 0.312500 0.000000
vt 0.312500 0.000000
vt 0.187500 0.000000
vt 0.187500 0.181250
vt 0.312500 0.181250
vt 0.312500 0.181250
vt 0.187500 0.181250
vt 0.187500 0.181250
vt 0.000000 0.181250
vt 0.000000 0.181250
vt 0.187500 0.181250
vt 0.187500 0.306250
vt 0.000000 0.306250
vt 0.000000 0.181250
vt 0.187500 0.000000
vt 0.187500 0.181250
vt 0.312500 0.000000
vt 0.312500 0.181250
vt 0.187500 0.493750
vt 0.312500 0.493750
vt 0.312500 0.306250
vt 0.187500 0.306250
vt 0.000000 0.493750
vt 0.000000 0.493750
vt 0.000000 0.306250
vt 0.000000 0.306250
vt 0.187500 0.493750
vt 0.187500 0.306250
vt 0.187500 0.306250
vt 0.312500 0.306250
vt 0.312500 0.493750
vt 0.187500 0.493750
vt 0.312500 0.181250
vt 0.302985 0.229085
vt 0.302985 0.229085
vt 0.275888 0.269638
vt 0.275888 0.269638
vt 0.235335 0.296735
vt 0.235335 0.296735
vt 0.187500 0.306250
vt 0.304718 0.245971
vt 0.252658 0.298531
vt 0.500000 0.306250
vt 0.500000 0.181250
vt 0.500000 0.493750
vt 0.500000 0.306250
vt 0.500000 0.493750
vt 0.500000 0.181250
vt 0.500000 0.000000
vt 0.500000 0.000000
vt 0.500000 0.181250
vt 0.187500 0.806250
vt 0.000000 0.806250
vt 0.000000 0.806250
vt 0.187500 0.806250
vt 0.187500 0.806250
vt 0.000000 0.806250
vt 0.000000 0.681250
vt 0.187500 0.681250
vt 0.187500 0.681250
vt 0.312500 0.681250
vt 0.000000 0.681250
vt 0.000000 0.681250
vt 0.187500 0.681250
vt 0.187500 0.681250
vt 0.312500 0.681250
vt 0.187500 0.806250
vt 0.500000 0.681250
vt 0.500000 0.681250
vt 0.812500 0.000000
vt 0.812500 0.000000
vt 0.687500 0.000000
vt 0.687500 0.000000
vt 0.812500 0.181250
vt 0.812500 0.181250
vt 0.687500 0.181250
vt 0.687500 0.181250
vt 0.812500 0.181250
vt 1.000000 0.181250
vt 1.000000 0.181250
vt 0.812500 0.181250
vt 1.000000 0.181250
vt 1.000000 0.306250
vt 0.812500 0.306250
vt 0.812500 0.181250
vt 0.812500 0.000000
vt 0.687500 0.000000
vt 0.687500 0.181250
vt 0.812500 0.493750
vt 0.812500 0.306250
vt 0.687500 0.306250
vt 0.687500 0.493750
vt 1.000000 0.493750
vt 1.000000 0.306250
vt 1.000000 0.306250
vt 1.000000 0.493750
vt 0.812500 0.306250
vt 0.812500 0.493750
vt 0.812500 0.306250
vt 0.812500 0.493750
vt 0.687500 0.493750
vt 0.687500 0.306250
vt 0.697015 0.229085
vt 0.697015 0.229085
vt 0.687500 0.181250
vt 0.724112 0.269638
vt 0.724112 0.269638
vt 0.764665 0.296735
vt 0.764665 0.296735
vt 0.812500 0.306250
vt 0.695282 0.245971
vt 0.747342 0.298531
vt 0.812500 0.806250
vt 0.812500 0.806250
vt 1.000000 0.806250
vt 1.000000 0.806250
vt 0.812500 0.806250
vt 0.812500 0.681250
vt 1.000000 0.681250
vt 1.000000 0.806250
vt 0.687500 0.681250
vt 0.812500 0.681250
vt 1.000000 0.681250
vt 1.000000 0.681250
vt 0.812500 0.681250
vt 0.812500 0.681250
vt 0.687500 0.681250
vt 0.812500 0.806250
vt 0.312500 0.806250
vt 0.500000 0.806250
vt 0.687500 0.806250
vt 0.312500 0.806250
vt 0.500000 0.806250
vt 0.687500 0.806250
vt 0.312500 0.806250
vt 0.500000 0.806250
vt 0.500000 0.806250
vt 0.687500 0.806250
vt 0.312500 0.681250
vt 0.500000 0.681250
vt 0.500000 0.681250
vt 0.687500 0.681250
vn 0.000000 -0.000000 1.000000
vn 0.000000 -0.000000 1.000000
vn 0.000000 -0.000000 1.000000
vn 0.000000 0.000000 1.000000
vn 0.000000 0.000000 0.000000
vn 0.000000 0.000000 0.000000
vn 0.000000 0.000000 0.000000
vn 0.000000 0.000000 0.000000
vn 0.000000 -1.000000 0.000000
vn 0.000000 -1.000000 0.000000
vn 0.000000 -1.000000 0.000000
vn 0.000000 -1.000000 0.000000
vn -1.000000 0.000000 0.000000
vn -1.000000 0.000000 0.000000
vn -1.000000 0.000000 0.000000
vn -1.000000 0.000000 0.000000
vn 0.000000 -0.000000 1.000000
vn 0.000000 -0.000000 1.000000
vn 0.000000 -0.000000 1.000000
vn 0.000000 -0.000000 1.000000
vn 0.000000 1.000000 0.000000
vn 0.000000 1.000000 0.000000
vn 0.000000 1.000000 0.000000
vn 0.000000 1.000000 0.000000
vn -1.000000 0.000000 0.000000
vn -1.000000 0.000000 0.000000
vn 0.000000 0.000002 1.000000
vn 0.000000 0.000002 1.000000
vn 0.000000 0.000000 1.000000
vn 0.000000 0.000000 1.000000
vn 0.000000 1.000000 0.000000
vn 0.000000 1.000000 0.000000
vn 0.000000 1.000000 -0.000000
vn 0.000000 1.000000 0.000000
vn 0.000000 -1.000000 0.000000
vn 0.000000 -1.000000 0.000000
vn 0.000000 -1.000000 0.000000
vn 0.000000 -1.000000 0.000000
vn -1.000000 0.000000 0.000000
vn -1.000000 0.000000 0.000000
vn -1.000000 0.000000 0.000000
vn -1.000000 0.000000 0.000000
vn 0.000000 -1.000000 0.000000
vn 0.000000 -1.000000 0.000000
vn 0.000000 -1.000000 0.000000
vn 0.000000 -1.000000 0.000000
vn 0.000000 1.000000 0.000000
vn 0.000000 1.000000 0.000000
vn 0.000000 1.000000 0.000000
vn 0.000000 1.000000 0.000000
vn 0.000000 -1.000000 0.000000
vn 0.000000 -1.000000 0.000000
vn -1.000000 0.000000 0.000000
vn -1.000000 0.000000 0.000000
vn 0.000000 0.000000 0.000000
vn 0.000000 0.000000 0.000000
vn 0.000000 0.000000 0.000000
vn 0.000000 0.000000 0.000000
vn 0.000000 -1.000000 0.000000
vn 0.000000 -1.000000 0.000000
vn -1.000000 0.000000 0.000000
vn -1.000000 0.000000 0.000000
vn 0.980785 0.000000 -0.195091
vn 0.980785 0.000000 -0.195091
vn 0.923880 0.000000 -0.382683
vn 0.923880 0.000000 -0.382683
vn 0.707107 0.000000 -0.707107
vn 0.707107 0.000000 -0.707107
vn 0.382684 0.000001 -0.923880
vn 0.382684 0.000001 -0.923880
vn 0.195091 0.000001 -0.980785
vn 0.195091 0.000001 -0.980785
vn 0.000000 1.000000 0.000000
vn 0.000000 1.000000 -0.000000
vn 0.000000 1.000000 -0.000000
vn 0.000000 1.000000 0.000000
vn 0.000000 1.000000 0.000000
vn 0.000000 1.000000 0.000000
vn 0.000000 1.000000 0.000000
vn 0.000000 1.000000 0.000000
vn -0.000000 0.000001 -1.000000
vn -0.000000 0.000001 -1.000000
vn -0.000000 0.000001 -1.000000
vn -0.000000 0.000001 -1.000000
vn 1.000000 -0.000001 0.000000
vn 1.000000 -0.000001 0.000000
vn 1.000000 -0.000001 0.000000
vn 1.000000 -0.000001 0.000000
vn 0.000000 1.000000 0.000000
vn 0.000000 1.000000 0.000000
vn 0.000000 1.000000 0.000000
vn 0.000000 1.000000 0.000000
vn 0.000000 1.000000 0.000000
vn 0.000000 1.000000 0.000000
vn 0.000000 1.000000 0.000000
vn 0.000000 1.000000 0.000000
vn 0.000000 1.000000 0.000000
vn 0.000000 1.000000 0.000000
vn 0.000000 1.000000 0.000000
vn 0.000000 1.000000 0.000000
vn 0.000000 1.000000 0.000000
vn 0.000000 1.000000 0.000000
vn 0.000000 1.000000 0.000000
vn 0.000000 1.000000 0.000000
vn 0.000000 -1.000000 0.000000
vn 0.000000 -1.000000 0.000000
vn 0.000000 -1.000000 0.000000
vn 0.000000 1.000000 0.000000
vn 0.000000 1.000000 0.000000
vn 0.000000 1.000000 0.000000
vn 0.000000 1.000000 0.000000
vn 0.000000 1.000000 0.000000
vn 0.000000 1.000000 0.000000
vn 0.000000 1.000000 0.000000
vn 0.000000 1.000000 0.000000
vn -0.000000 -0.000000 1.000000
vn -0.000000 -0.000000 1.000000
vn 0.000000 -1.000000 0.000000
vn 0.000000 -1.000000 0.000000
vn 0.000000 0.000000 -1.000000
vn 0.000000 0.000000 -1.000000
vn 0.000000 0.000000 -1.000000
vn 0.000000 0.000000 -1.000000
vn 0.000000 1.000000 0.000000
vn 0.000000 1.000000 0.000000
vn 0.000000 1.000000 0.000000
vn 0.000000 1.000000 0.000000
vn 0.000000 0.000000 -1.000000
vn 0.000000 0.000000 -1.000000
vn 0.000000 -1.000000 0.000000
vn 0.000000 -1.000000 0.000000
vn -1.000000 0.000000 0.000000
vn -1.000000 0.000000 0.000000
vn 0.000000 -1.000000 0.000000
vn 0.000000 -1.000000 0.000000
vn 0.000000 1.000000 0.000000
vn 0.000000 1.000000 0.000000
vn -1.000000 0.000000 0.000000
vn -1.000000 0.000000 0.000000
vn 0.000000 0.000000 0.000000
vn 0.000000 0.000000 0.000000
vn 0.000000 0.000000 0.000000
vn 0.000000 0.000000 0.000000
vn 0.000000 -1.000000 0.000000
vn 0.000000 -1.000000 0.000000
vn -1.000000 0.000000 0.000000
vn -1.000000 0.000000 0.000000
vn 0.000000 1.000000 0.000000
vn 0.000000 1.000000 0.000000
vn 0.000000 0.000000 1.000000
vn 0.000000 0.000000 1.000000
vn 0.000000 0.000000 1.000000
vn 0.000000 0.000000 1.000000
vn 0.000000 -1.000000 0.000000
vn 0.000000 1.000000 0.000000
vn 0.000000 0.000000 1.000000
vn 0.000000 0.000000 1.000000
vn 0.000000 0.000000 1.000000
vn 0.000000 0.000000 1.000000
vn 0.000000 0.000000 0.000000
vn 0.000000 0.000000 0.000000
vn 0.000000 0.000000 0.000000
vn 0.000000 0.000000 0.000000
vn 0.000000 -1.000000 0.000000
vn 0.000000 -1.000000 0.000000
vn 0.000000 -1.000000 0.000000
vn 0.000000 -1.000000 0.000000
vn 1.000000 0.000000 0.000000
vn 1.000000 0.000000 0.000000
vn 1.000000 0.000000 0.000000
vn 1.000000 0.000000 0.000000
vn 0.000000 0.000000 1.000000
vn 0.000000 0.000000 1.000000
vn 0.000000 0.000000 1.000000
vn 0.000000 0.000000 1.000000
vn 0.000000 1.000000 0.000000
vn 0.000000 1.000000 0.000000
vn 0.000000 1.000000 0.000000
vn 0.000000 1.000000 0.000000
vn 1.000000 0.000000 0.000000
vn 1.000000 0.000000 0.000000
vn 0.000000 0.000000 1.000000
vn 0.000000 0.000000 1.000000
vn 0.000000 0.000000 1.000000
vn 0.000000 0.000000 1.000000
vn 0.000000 1.000000 0.000000
vn 0.000000 1.000000 0.000000
vn 0.000000 1.000000 -0.000000
vn 0.000000 1.000000 0.000000
vn 0.000000 -1.000000 0.000000
vn 0.000000 -1.000000 0.000000
vn 0.000000 -1.000000 0.000000
vn 0.000000 -1.000000 0.000000
vn 1.000000 0.000000 0.000000
vn 1.000000 0.000000 0.000000
vn 1.000000 0.000000 0.000000
vn 1.000000 0.000000 0.000000
vn 0.000000 -1.000000 0.000000
vn 0.000000 -1.000000 0.000000
vn 0.000000 -1.000000 0.000000
vn 0.000000 -1.000000 0.000000
vn 0.000000 1.000000 0.000000
vn 0.000000 1.000000 0.000000
vn 0.000000 1.000000 0.000000
vn 0.000000 1.000000 0.000000
vn 0.000000 -1.000000 0.000000
vn 0.000000 -1.000000 0.000000
vn 1.000000 0.000000 0.000000
vn 1.000000 0.000000 0.000000
vn 0.000000 0.000000 0.000000
vn 0.000000 0.000000 0.000000
vn 0.000000 0.000000 0.000000
vn 0.000000 0.000000 0.000000
vn 0.000000 -1.000000 0.000000
vn 0.000000 -1.000000 0.000000
vn 1.000000 0.000000 0.000000
vn 1.000000 0.000000 0.000000
vn -0.980785 0.000000 -0.195091
vn -0.923880 0.000000 -0.382683
vn -0.923880 0.000000 -0.382683
vn -0.980785 0.000000 -0.195091
vn -0.707107 0.000000 -0.707107
vn -0.707107 0.000000 -0.707107
vn -0.382683 0.000000 -0.923880
vn -0.382683 0.000000 -0.923880
vn -0.195091 0.000000 -0.980785
vn -0.195091 0.000000 -0.980785
vn 0.000000 1.000000 0.000000
vn 0.000000 1.000000 -0.000000
vn 0.000000 1.000000 -0.000000
vn 0.000000 1.000000 0.000000
vn 0.000000 1.000000 0.000000
vn 0.000000 1.000000 0.000000
vn 0.000000 1.000000 0.000000
vn 0.000000 1.000000 0.000000
vn 0.000000 0.000000 -1.000000
vn 0.000000 0.000000 -1.000000
vn 0.000000 0.000000 -1.000000
vn 0.000000 0.000000 -1.000000
vn -1.000000 0.000000 0.000000
vn -1.000000 0.000000 0.000000
vn -1.000000 0.000000 0.000000
vn -1.000000 0.000000 0.000000
vn 0.000000 1.000000 0.000000
vn 0.000000 1.000000 0.000000
vn 0.000000 1.000000 0.000000
vn 0.000000 1.000000 0.000000
vn 0.000000 1.000000 0.000000
vn 0.000000 1.000000 0.000000
vn 0.000000 1.000000 0.000000
vn 0.000000 1.000000 0.000000
vn 0.000000 1.000000 0.000000
vn 0.000000 1.000000 0.000000
vn 0.000000 1.000000 0.000000
vn 0.000000 1.000000 0.000000
vn 0.000000 1.000000 0.000000
vn 0.000000 1.000000 0.000000
vn 0.000000 1.000000 0.000000
vn 0.000000 1.000000 0.000000
vn 0.000000 1.000000 0.000000
vn 0.000000 1.000000 0.000000
vn 0.000000 1.000000 0.000000
vn 0.000000 0.000000 -1.000000
vn 0.000000 0.000000 -1.000000
vn 0.000000 0.000000 -1.000000
vn 0.000000 0.000000 -1.000000
vn 0.000000 1.000000 0.000000
vn 0.000000 1.000000 0.000000
vn 0.000000 1.000000 0.000000
vn 0.000000 1.000000 0.000000
vn 0.000000 0.000000 -1.000000
vn 0.000000 0.000000 -1.000000
vn 0.000000 -1.000000 0.000000
vn 0.000000 -1.000000 0.000000
vn 1.000000 0.000000 0.000000
vn 1.000000 0.000000 0.000000
vn 0.000000 -1.000000 0.000000
vn 0.000000 -1.000000 0.000000
vn 0.000000 1.000000 0.000000
vn 0.000000 1.000000 0.000000
vn 1.000000 0.000000 0.000000
vn 1.000000 0.000000 0.000000
vn 0.000000 0.000000 0.000000
vn 0.000000 0.000000 0.000000
vn 0.000000 0.000000 0.000000
vn 0.000000 0.000000 0.000000
vn 0.000000 -1.000000 0.000000
vn 0.000000 -1.000000 0.000000
vn 1.000000 0.000000 0.000000
vn 1.000000 0.000000 0.000000
vn 0.000000 1.000000 0.000000
vn 0.000000 1.000000 0.000000
vn 0.000000 0.000000 1.000000
vn 0.000000 0.000000 1.000000
vn 0.000000 0.000000 1.000000
vn 0.000000 0.000000 1.000000
vn 0.000000 -1.000000 0.000000
vn 0.000000 -1.000000 0.000000
vn 0.000000 -1.000000 0.000000
vn 0.000000 -1.000000 0.000000
vn 0.000000 -1.000000 -0.000000
vn 0.000000 -1.000000 0.000000
vn 0.000000 -1.000000 -0.000000
vn 0.000000 -1.000000 -0.000000
vn 0.000000 -1.000000 0.000000
vn 0.000000 -1.000000 0.000000
vn 0.000000 0.000000 -1.000000
vn 0.000000 0.000000 -1.000000
vn 0.000000 0.000000 -1.000000
vn 0.000000 0.000000 -1.000000
vn 0.000000 0.000000 -1.000000
vn 0.000000 0.000000 -1.000000
vn 0.000000 0.000000 -1.000000
vn 0.000000 0.000000 -1.000000
vn 0.000000 0.000000 -1.000000
vn 0.000000 0.000000 -1.000000
vn 0.000000 0.000000 -1.000000
vn 0.000000 0.000000 -1.000000
vn 0.000000 0.000000 -1.000000
vn 0.000000 0.000000 -1.000000
vn 0.000000 0.000000 -1.000000
vn 0.000000 0.000000 -1.000000
vn 0.000000 0.000000 -1.000000
vn 0.000000 0.000000 -1.000000
vn 0.000000 0.000000 -1.000000
vn 0.000000 0.000000 -1.000000
vn 0.000000 0.000000 1.000000
vn 0.000000 0.000000 1.000000
vn 0.000000 0.000000 1.000000
vn 0.000000 0.000000 1.000000
vn -0.000000 0.000000 1.000000
vn -0.000000 0.000000 1.000000
vn -0.000000 0.000000 1.000000
vn -0.000000 0.000000 1.000000
vn 0.000000 0.000000 1.000000
vn 0.000000 0.000000 1.000000
vn 0.000000 1.000000 0.000000
vn 0.000000 1.000000 0.000000
vn 0.000000 1.000000 0.000000
vn 0.000000 1.000000 0.000000
vn 0.000000 1.000000 0.000000
vn 0.000000 1.000000 0.000000
vn 0.000000 1.000000 0.000000
vn 0.000000 1.000000 0.000000
vn -0.000000 1.000000 0.000000
vn -0.000000 1.000000 0.000000
vn -0.000000 1.000000 0.000000
vn -0.000000 1.000000 0.000000
vn 0.000000 1.000000 0.000000
vn 0.000000 1.000000 0.000000
vn 0.000000 1.000000 0.000000
vn 0.000000 1.000000 0.000000
s 1
g pCube1
usemtl initialShadingGroup
f 4/1/1 15/2/2 16/3/3 5/4/4
s off
f 1/5/5 12/6/6 14/7/7 3/8/8
s 2
f 3/8/9 14/7/10 15/2/11 4/1/12
s 3
f 2/9/13 3/8/14 4/1/15 5/4/16
s 4
f 3/8/17 2/9/18 7/10/19 6/11/20
s off
f 10/12/21 21/13/22 22/14/23 11/15/24
s 3
f 2/9/13 5/4/16 9/16/25 8/17/26
s 1
f 5/4/4 16/3/3 18/18/27 9/16/28
s 4
f 7/10/19 2/9/18 10/12/29 11/15/30
s 5
f 18/18/31 17/19/32 8/17/33 9/16/34
s 6
f 44/20/35 45/21/36 27/22/37 24/23/38
s 7
f 50/24/39 51/25/40 26/26/41 20/27/42
s 8
f 51/25/43 52/28/44 25/29/45 26/26/46
s 9
f 19/30/47 23/31/48 48/32/49 49/33/50
s 6
f 24/23/38 27/22/37 12/6/51 1/5/52
s 7
f 20/27/42 26/26/41 6/11/53 7/10/54
s off
f 25/29/55 24/23/56 1/5/57 3/8/58
s 8
f 26/26/46 25/29/45 3/8/59 6/11/60
s 7
f 22/14/61 20/27/42 7/10/54 11/15/62
s 10
f 17/19/63 13/34/64 28/35/65 31/36/66
f 31/36/66 28/35/65 29/37/67 32/38/68
f 32/38/68 29/37/67 30/39/69 33/40/70
f 33/40/70 30/39/69 19/30/71 34/41/72
s 5
f 8/17/33 17/19/32 31/36/73
f 8/17/33 31/36/73 32/38/74
f 8/17/33 32/38/74 33/40/75
f 8/17/33 33/40/75 34/41/76
s 11
f 20/27/77 19/30/78 49/33/79 50/24/80
s off
f 22/14/81 21/13/82 19/30/83 20/27/84
f 17/19/85 18/18/86 16/3/87 13/34/88
f 29/37/89 28/35/90 35/42/91 23/31/92
f 30/39/93 29/37/94 23/31/95 36/43/96
f 23/31/97 19/30/98 30/39/99 36/43/100
f 13/34/101 23/31/102 35/42/103 28/35/104
s 6
f 12/6/51 27/22/37 38/44/105 37/45/106
f 45/21/36 46/46/107 38/44/105 27/22/37
s 9
f 39/47/108 47/48/109 48/32/49 23/31/48
f 40/49/110 39/47/108 23/31/48 13/34/111
s 12
f 41/50/112 40/49/113 13/34/114 16/3/115
s 1
f 16/3/3 15/2/2 42/51/116 41/50/117
s 2
f 15/2/11 14/7/10 43/52/118 42/51/119
s 13
f 55/53/120 56/54/121 57/55/122 54/56/123
s off
f 58/57/124 59/58/125 63/59/126 62/60/127
s 13
f 57/55/122 59/58/128 58/57/129 54/56/123
s 6
f 44/20/35 65/61/130 68/62/131 45/21/36
s 7
f 50/24/39 61/63/132 67/64/133 51/25/40
s 8
f 51/25/43 67/64/134 66/65/135 52/28/44
s 9
f 60/66/136 49/33/50 48/32/49 64/67/137
s 7
f 61/63/132 57/55/138 56/54/139 67/64/133
s off
f 66/65/140 55/53/141 53/68/142 65/61/143
s 8
f 67/64/134 56/54/144 55/53/145 66/65/135
s 7
f 63/59/146 59/58/147 57/55/138 61/63/132
s 11
f 61/63/148 50/24/80 49/33/79 60/66/149
s off
f 63/59/150 61/63/151 60/66/152 62/60/153
s 6
f 45/21/36 68/62/131 69/69/154 46/46/107
s 9
f 70/70/155 64/67/137 48/32/49 47/48/109
s 1
f 74/71/156 75/72/157 86/73/158 85/74/159
s off
f 71/75/160 73/76/161 84/77/162 82/78/163
s 2
f 73/76/164 74/71/165 85/74/166 84/77/167
s 15
f 72/79/168 75/72/169 74/71/170 73/76/171
s 16
f 73/76/172 76/80/173 77/81/174 72/79/175
s off
f 80/82/176 81/83/177 92/84/178 91/85/179
s 15
f 72/79/168 78/86/180 79/87/181 75/72/169
s 1
f 75/72/157 79/87/182 88/88/183 86/73/158
s 16
f 77/81/174 81/83/184 80/82/185 72/79/175
s 17
f 88/88/186 79/87/187 78/86/188 87/89/189
s 6
f 107/90/190 94/91/191 97/92/192 108/93/193
s 19
f 111/94/194 90/95/195 96/96/196 112/97/197
s 20
f 112/97/198 96/96/199 95/98/200 113/99/201
s 9
f 89/100/202 110/101/203 109/102/204 93/103/205
s 6
f 94/91/191 71/75/206 82/78/207 97/92/192
s 19
f 90/95/195 77/81/208 76/80/209 96/96/196
s off
f 95/98/210 73/76/211 71/75/212 94/91/213
s 20
f 96/96/199 76/80/214 73/76/215 95/98/200
s 19
f 92/84/216 81/83/217 77/81/208 90/95/195
s 22
f 87/89/218 101/104/219 98/105/220 83/106/221
f 101/104/219 102/107/222 99/108/223 98/105/220
f 102/107/222 103/109/224 100/110/225 99/108/223
f 103/109/224 104/111/226 89/100/227 100/110/225
s 17
f 78/86/188 101/104/228 87/89/189
f 78/86/188 102/107/229 101/104/228
f 78/86/188 103/109/230 102/107/229
f 78/86/188 104/111/231 103/109/230
s 23
f 90/95/232 111/94/233 110/101/234 89/100/235
s off
f 92/84/236 90/95/237 89/100/238 91/85/239
f 87/89/240 83/106/241 86/73/242 88/88/243
f 99/108/244 93/103/245 105/112/246 98/105/247
f 100/110/248 106/113/249 93/103/250 99/108/251
f 93/103/252 106/113/253 100/110/254 89/100/255
f 83/106/256 98/105/257 105/112/258 93/103/259
s 6
f 82/78/207 37/45/106 38/44/105 97/92/192
f 108/93/193 97/92/192 38/44/105 46/46/107
s 9
f 39/47/108 93/103/205 109/102/204 47/48/109
f 40/49/110 83/106/260 93/103/205 39/47/108
s 12
f 41/50/112 86/73/261 83/106/262 40/49/113
s 1
f 86/73/158 41/50/117 42/51/116 85/74/159
s 2
f 85/74/166 42/51/119 43/52/118 84/77/167
s 24
f 116/114/263 115/115/264 118/116/265 117/117/266
s off
f 119/118/267 123/119/268 124/120/269 120/121/270
s 24
f 118/116/265 115/115/264 119/118/271 120/121/272
s 6
f 107/90/190 108/93/193 129/122/273 126/123/274
s 19
f 111/94/194 112/97/197 128/124/275 122/125/276
s 20
f 112/97/198 113/99/201 127/126/277 128/124/278
s 9
f 121/127/279 125/128/280 109/102/204 110/101/203
s 19
f 122/125/276 128/124/275 117/117/281 118/116/282
s off
f 127/126/283 126/123/284 114/129/285 116/114/286
s 20
f 128/124/278 127/126/277 116/114/287 117/117/288
s 19
f 124/120/289 122/125/276 118/116/282 120/121/290
s 23
f 122/125/291 121/127/292 110/101/234 111/94/233
s off
f 124/120/293 123/119/294 121/127/295 122/125/296
s 6
f 108/93/193 46/46/107 69/69/154 129/122/273
s 9
f 70/70/155 47/48/109 109/102/204 125/128/280
s 25
f 65/61/297 53/68/298 130/130/299 68/62/300
f 68/62/300 130/130/299 131/131/301 69/69/302
f 69/69/302 131/131/301 132/132/303 129/122/304
f 129/122/304 132/132/303 114/129/305 126/123/306
s 26
f 55/53/307 54/56/308 133/133/309 130/130/310
f 130/130/310 133/133/309 134/134/311 131/131/312
f 131/131/312 134/134/311 135/135/313 132/132/314
f 132/132/314 135/135/313 115/115/315 116/114/316
s 27
f 54/56/317 58/57/318 136/136/319 133/133/320
f 133/133/320 136/136/319 137/137/321 138/138/322
f 138/138/322 137/137/321 139/139/323 135/135/324
f 135/135/324 139/139/323 119/118/325 115/115/326
s 28
f 62/60/327 60/66/328 64/67/329 140/140/330
f 140/140/330 64/67/329 141/141/331 142/142/332
f 142/142/332 141/141/331 125/128/333 143/143/334
f 143/143/334 125/128/333 121/127/335 123/119/336
s off
f 136/136/337 58/57/338 62/60/339 140/140/340
f 137/137/341 136/136/342 140/140/343 142/142/344
f 139/139/345 137/137/346 142/142/347 143/143/348
f 119/118/349 139/139/350 143/143/351 123/119/352
