# This file uses centimeters as units for non-parametric coordinates.

mtllib Road6.mtl
g default
v -1.500001 -0.500000 1.500000
v -1.500001 -0.500000 1.500000
v 1.500000 -0.500000 1.500000
v -1.500001 0.500000 1.500000
v 1.500000 0.500000 1.500000
v -1.500001 0.500000 -1.500000
v 1.500000 0.500000 -1.500000
v -1.500001 -0.500000 -1.500000
v -1.500001 -0.500000 -1.500000
v 1.500000 -0.500000 -1.500000
vt 0.800000 0.000000
vt 1.000000 0.000000
vt 1.000000 0.200000
vt 0.800000 0.200000
vt 0.800000 0.000000
vt 1.000000 0.000000
vt 0.800000 0.200000
vt 0.800000 0.000000
vt 0.800000 0.200000
vt 1.000000 0.200000
vn 0.000000 1.000000 0.000000
vn 0.000000 1.000000 0.000000
vn 0.000000 1.000000 0.000000
vn 0.000000 1.000000 0.000000
vn 0.000000 0.000000 1.000000
vn 0.000000 0.000000 1.000000
vn 0.000000 0.000000 1.000000
vn 0.000000 0.000000 1.000000
vn 0.000000 0.000000 0.000000
vn 0.000000 0.000000 0.000000
vn 0.000000 0.000000 0.000000
vn 0.000000 0.000000 0.000000
vn 0.000000 -1.000000 0.000000
vn 0.000000 -1.000000 0.000000
vn 0.000000 -1.000000 0.000000
vn 0.000000 -1.000000 0.000000
vn 1.000000 0.000000 0.000000
vn 1.000000 0.000000 0.000000
vn 1.000000 0.000000 0.000000
vn 1.000000 0.000000 0.000000
vn 0.000000 0.000000 -1.000000
vn 0.000000 0.000000 -1.000000
vn 0.000000 0.000000 -1.000000
vn 0.000000 0.000000 -1.000000
vn -1.000000 0.000000 0.000000
vn -1.000000 0.000000 0.000000
vn -1.000000 0.000000 0.000000
vn -1.000000 0.000000 0.000000
s off
g pCube1
usemtl initialShadingGroup1
f 4/1/1 5/2/2 7/3/3 6/4/4
f 5/2/5 4/1/6 2/5/7 3/6/8
f 9/7/9 2/5/10 1/8/11 8/9/12
f 10/10/13 3/6/14 2/5/15 9/7/16
f 7/3/17 5/2/18 3/6/19 10/10/20
f 7/3/21 10/10/22 9/7/23 6/4/24
f 4/1/25 6/4/26 8/9/27 1/8/28
